<svg xmlns="http://www.w3.org/2000/svg" width="920" height="430" viewBox="0 0 920 430">
<style>
text { font-family: -apple-system, BlinkMacSystemFont, 'Segoe UI', sans-serif; fill: #111827; }
.title { font-size: 18px; font-weight: 700; }
.panel-title { font-size: 13px; font-weight: 650; }
.tick { font-size: 11px; fill: #4b5563; }
.empty { font-size: 12px; fill: #6b7280; }
.plot-bg { fill: #f9fafb; stroke: #d1d5db; }
.axis { stroke: #6b7280; stroke-width: 1; }
</style>
<text x="30" y="26" class="title">World-Model Checkpoint Diagnostics</text>
<text x="30" y="48" class="panel-title">wm_obs_ce_l0p01_s1</text>
<text x="85" y="44" class="panel-title">token_mean_ce (lower is better)</text>
<rect x="85" y="60" width="780" height="120" class="plot-bg"/>
<line x1="85" y1="180" x2="865" y2="180" class="axis"/>
<line x1="85" y1="60" x2="85" y2="180" class="axis"/>
<text x="75" y="64" text-anchor="end" class="tick">1.429</text>
<text x="75" y="180" text-anchor="end" class="tick">0.269</text>
<polyline points="85.0,60.0 241.0,160.6 397.0,171.9 553.0,175.6 709.0,178.5 865.0,180.0" fill="none" stroke="#2563eb" stroke-width="2.5"/>
<circle cx="85.0" cy="60.0" r="4" fill="#2563eb"/>
<text x="85.0" y="198" text-anchor="middle" class="tick">init</text>
<circle cx="241.0" cy="160.6" r="4" fill="#2563eb"/>
<text x="241.0" y="198" text-anchor="middle" class="tick">30</text>
<circle cx="397.0" cy="171.9" r="4" fill="#2563eb"/>
<text x="397.0" y="198" text-anchor="middle" class="tick">60</text>
<circle cx="553.0" cy="175.6" r="4" fill="#2563eb"/>
<text x="553.0" y="198" text-anchor="middle" class="tick">90</text>
<circle cx="709.0" cy="178.5" r="4" fill="#2563eb"/>
<text x="709.0" y="198" text-anchor="middle" class="tick">120</text>
<circle cx="865.0" cy="180.0" r="4" fill="#2563eb"/>
<text x="865.0" y="198" text-anchor="middle" class="tick">150</text>
<text x="85" y="234" class="panel-title">action_obs_cosine (higher is better)</text>
<rect x="85" y="250" width="780" height="120" class="plot-bg"/>
<line x1="85" y1="370" x2="865" y2="370" class="axis"/>
<line x1="85" y1="250" x2="85" y2="370" class="axis"/>
<text x="75" y="254" text-anchor="end" class="tick">0.212</text>
<text x="75" y="370" text-anchor="end" class="tick">0.163</text>
<polyline points="85.0,250.0 241.0,291.5 397.0,296.6 553.0,331.0 709.0,292.3 865.0,370.0" fill="none" stroke="#16a34a" stroke-width="2.5"/>
<circle cx="85.0" cy="250.0" r="4" fill="#16a34a"/>
<text x="85.0" y="388" text-anchor="middle" class="tick">init</text>
<circle cx="241.0" cy="291.5" r="4" fill="#16a34a"/>
<text x="241.0" y="388" text-anchor="middle" class="tick">30</text>
<circle cx="397.0" cy="296.6" r="4" fill="#16a34a"/>
<text x="397.0" y="388" text-anchor="middle" class="tick">60</text>
<circle cx="553.0" cy="331.0" r="4" fill="#16a34a"/>
<text x="553.0" y="388" text-anchor="middle" class="tick">90</text>
<circle cx="709.0" cy="292.3" r="4" fill="#16a34a"/>
<text x="709.0" y="388" text-anchor="middle" class="tick">120</text>
<circle cx="865.0" cy="370.0" r="4" fill="#16a34a"/>
<text x="865.0" y="388" text-anchor="middle" class="tick">150</text>
</svg>
